<svg xmlns="http://www.w3.org/2000/svg" viewBox="0 0 60.8 60.8"><g id="Слой_2" data-name="Слой 2"><g id="Слой_1-2" data-name="Слой 1"><path d="M52.88,50.87a30.21,30.21,0,1,0-2,2L37.77,39.77l2-2ZM16,41.52a.73.73,0,1,1,1,1,.73.73,0,0,1-1-1ZM18.23,52,9.78,47.72l.89-.89L14.8,49c1.14.58,2.15,1.12,3.06,1.7l0,0c-.56-.92-1.09-2-1.64-3.1l-2.07-4.23.88-.87,4.09,8.64Zm3.7-3.7-4.58-4.57.84-.83,4.57,4.57ZM27.2,43,24.57,40.4c-.74-.73-1.63-1.07-2.41-.29a1.68,1.68,0,0,0-.27,2,1.81,1.81,0,0,0,.33.44L25,45.27l-.83.83L20.8,42.77c-.47-.48-.86-.85-1.27-1.21l.74-.73.8.71,0,0a2.36,2.36,0,0,1,.65-2.37c.63-.64,2-1.24,3.56.33L28,42.21Zm3.2-5.27a7.37,7.37,0,1,1,7.37-7.37A7.37,7.37,0,0,1,30.4,37.77Zm6.4-13.48.74-.73.8.71,0,0A2.36,2.36,0,0,1,39,21.88c.63-.64,2-1.24,3.56.33l2.74,2.73-.84.83-2.63-2.64c-.74-.73-1.63-1.07-2.41-.29a1.68,1.68,0,0,0-.27,2,1.81,1.81,0,0,0,.33.44L42.24,28l-.83.83L38.07,25.5C37.6,25,37.21,24.65,36.8,24.29Z"/></g></g></svg>